<svg xmlns="http://www.w3.org/2000/svg" xmlns:xlink="http://www.w3.org/1999/xlink" width="500" zoomAndPan="magnify" viewBox="0 0 375 374.999991" height="500" preserveAspectRatio="xMidYMid meet" version="1.0"><defs><clipPath id="0df3e6ba01"><path d="M 70 70 L 305 70 L 305 304.703125 L 70 304.703125 Z M 70 70 " clip-rule="nonzero"/></clipPath></defs><g clip-path="url(#0df3e6ba01)"><path fill="#ffffff" d="M 300.359375 227.164062 C 297.894531 227.164062 295.894531 225.160156 295.894531 222.695312 L 295.894531 85.652344 L 220.058594 161.484375 C 218.3125 163.230469 215.484375 163.230469 213.738281 161.484375 C 211.996094 159.742188 211.996094 156.914062 213.738281 155.167969 L 297.203125 71.707031 C 298.480469 70.425781 300.402344 70.046875 302.070312 70.738281 C 303.738281 71.429688 304.828125 73.058594 304.828125 74.863281 L 304.828125 222.695312 C 304.828125 225.160156 302.828125 227.164062 300.359375 227.164062 Z M 74.652344 305.042969 C 72.183594 305.042969 70.183594 303.042969 70.183594 300.574219 L 70.183594 144.816406 C 70.183594 143.011719 71.273438 141.378906 72.941406 140.691406 C 74.613281 139.996094 76.535156 140.378906 77.8125 141.65625 L 155.691406 219.539062 C 157.433594 221.28125 157.433594 224.109375 155.691406 225.851562 C 153.945312 227.597656 151.117188 227.597656 149.371094 225.851562 L 79.121094 155.601562 L 79.121094 300.574219 C 79.121094 303.042969 77.121094 305.042969 74.652344 305.042969 Z M 300.359375 305.042969 C 299.21875 305.042969 298.074219 304.605469 297.203125 303.730469 L 71.492188 78.023438 C 69.75 76.28125 69.75 73.449219 71.492188 71.707031 C 73.238281 69.960938 76.066406 69.960938 77.8125 71.707031 L 303.519531 297.414062 C 305.265625 299.160156 305.265625 301.988281 303.519531 303.730469 C 302.644531 304.605469 301.503906 305.042969 300.359375 305.042969 " fill-opacity="1" fill-rule="nonzero"/></g></svg>